<svg xmlns="http://www.w3.org/2000/svg" xmlns:xlink="http://www.w3.org/1999/xlink" width="264" height="280"><defs><path id="7126d151__a" d="M100 0c30.928 0 56 25.072 56 56v6.166c5.676.953 10 5.888 10 11.834v14c0 6.052-4.48 11.058-10.306 11.881-2.066 19.805-14.456 36.54-31.693 44.73L124 163h4c39.765 0 72 32.235 72 72v9H0v-9c0-39.765 32.235-72 72-72h4v-18.39c-17.237-8.188-29.628-24.923-31.695-44.729C38.481 99.058 34 94.052 34 88V74c0-5.946 4.325-10.882 10-11.834V56c0-30.928 25.072-56 56-56"/></defs><g fill="none" fill-rule="evenodd" transform="translate(32 36)"><mask id="e3ae96e0__b" fill="#fff"><use xlink:href="#7126d151__a"/></mask><use xlink:href="#7126d151__a" fill="#D0C6AC"/><g fill="#FFDBB4" mask="url(#e3ae96e0__b)"><path d="M-32 0h264v244H-32z"/></g><path fill="#000" fill-opacity=".1" d="M44 94c0 30.928 25.072 56 56 56s56-25.072 56-56v8c0 30.928-25.072 56-56 56s-56-25.072-56-56Z" mask="url(#e3ae96e0__b)"/></g></svg>