<svg xmlns="http://www.w3.org/2000/svg" xmlns:xlink="http://www.w3.org/1999/xlink" width="264" height="280"><defs><path id="fb0d73ba__a" d="M0 0h264v280H0z"/><path id="7d7c7a92__d" d="M102 3c8.92 0 16.703 4.866 20.84 12.088q.316-.087.66-.088h8a2.5 2.5 0 1 1 0 5h-6.537A24 24 0 0 1 126 27c0 13.255-10.745 24-24 24S78 40.255 78 27c0-1.418.123-2.808.359-4.159-.078-4.38-3.442-7.841-7.497-7.841-3.738 0-6.89 2.942-7.42 6.834A24 24 0 0 1 64 27c0 13.255-10.745 24-24 24S16 40.255 16 27c0-2.435.363-4.785 1.037-7H10.5a2.5 2.5 0 1 1 0-5h8q.344 0 .66.088C23.297 7.866 31.08 3 40 3c9.352 0 17.455 5.35 21.416 13.155C63.493 13.04 66.949 11 70.862 11c4.013 0 7.545 2.144 9.603 5.395C84.379 8.459 92.552 3 102 3M40 7c-11.046 0-20 8.954-20 20s8.954 20 20 20 20-8.954 20-20S51.046 7 40 7m62 0c-11.046 0-20 8.954-20 20s8.954 20 20 20 20-8.954 20-20-8.954-20-20-20"/><filter id="c21ee69b__c" width="101.6%" height="108.3%" x="-.8%" y="-2.1%" filterUnits="objectBoundingBox"><feOffset dy="2" in="SourceAlpha" result="shadowOffsetOuter1"/><feColorMatrix in="shadowOffsetOuter1" values="0 0 0 0 0 0 0 0 0 0 0 0 0 0 0 0 0 0 0.1 0"/></filter></defs><g fill="none" fill-rule="evenodd"><mask id="198a1ab4__b" fill="#fff"><use xlink:href="#fb0d73ba__a"/></mask><g mask="url(#198a1ab4__b)"><g transform="translate(61 85)"><use xlink:href="#7d7c7a92__d" fill="#000" filter="url(#c21ee69b__c)"/><use xlink:href="#7d7c7a92__d" fill="#252C2F"/></g></g></g></svg>