<svg xmlns="http://www.w3.org/2000/svg" xmlns:xlink="http://www.w3.org/1999/xlink" width="266" height="280"><defs><path id="81610913__a" d="M264 0v280h-32v-9c0-39.367-31.594-71.355-70.81-71.99L160 199h-4l.001-18.39c17.53-8.328 30.047-25.496 31.79-45.743 5.68-.85 10.058-5.68 10.205-11.562L198 123v-13c0-5.946-4.324-10.881-10-11.834V92a55.8 55.8 0 0 0-4.638-22.35C173.435 53 89.312 53.802 80.71 69.484A55.8 55.8 0 0 0 76 92v6.166c-5.578.936-9.851 5.72-9.996 11.529L66 110v13c0 6.019 4.431 11.003 10.209 11.867 1.743 20.248 14.26 37.416 31.791 45.744V199h-4c-39.367 0-71.355 31.594-71.99 70.81L32 271v9H0V0z"/></defs><g fill="none" fill-rule="evenodd"><g transform="translate(1)"><mask id="575064d3__b" fill="#fff"><use xlink:href="#81610913__a"/></mask><path fill="#1F333C" d="M123.182 2h18.636c18.791 0 35.049 13.08 39.072 31.436L190 75H75l9.11-41.564C88.133 15.08 104.39 2 123.182 2" mask="url(#575064d3__b)"/><ellipse cx="132" cy="87.5" fill="#1F333C" mask="url(#575064d3__b)" rx="122" ry="57.5"/><ellipse cx="132" cy="82" fill="#15232A" mask="url(#575064d3__b)" rx="62" ry="25"/></g></g></svg>