<svg xmlns="http://www.w3.org/2000/svg" xmlns:xlink="http://www.w3.org/1999/xlink" width="264" height="280"><defs><path id="deaf2119__a" d="M0 0h264v280H0z"/><path id="f9224220__d" d="M44.918 17.571c0 9.703-8.25 17.572-21.998 17.572h-2.75C6.423 35.143.923 27.27.923 17.57.923 7.866 2.207 0 21.455 0h2.931c19.248 0 20.532 7.866 20.532 17.571"/><path id="8c6d6efb__f" d="M106.486 17.571c0 9.703-8.247 17.572-21.997 17.572h-2.75c-13.748 0-19.248-7.872-19.248-17.572C62.491 7.866 63.775 0 83.023 0h2.932c19.244 0 20.531 7.866 20.531 17.571"/><linearGradient id="85b12fc9__e" x1="50%" x2="50%" y1="0%" y2="100%"><stop offset="0%" stop-color="#FFF" stop-opacity=".5"/><stop offset="70.506%" stop-opacity=".5"/></linearGradient><filter id="8c30c1e4__c" width="106.2%" height="119.5%" x="-3.1%" y="-9.8%" filterUnits="objectBoundingBox"><feOffset dy="2" in="SourceAlpha" result="shadowOffsetOuter1"/><feColorMatrix in="shadowOffsetOuter1" result="shadowMatrixOuter1" values="0 0 0 0 0 0 0 0 0 0 0 0 0 0 0 0 0 0 0.2 0"/><feMerge><feMergeNode in="shadowMatrixOuter1"/><feMergeNode in="SourceGraphic"/></feMerge></filter></defs><g fill="none" fill-rule="evenodd"><mask id="594d5a0a__b" fill="#fff"><use xlink:href="#deaf2119__a"/></mask><g mask="url(#594d5a0a__b)"><g fill-rule="nonzero" filter="url(#8c30c1e4__c)" transform="translate(68 92)"><g transform="translate(10.795 2.929)"><use xlink:href="#f9224220__d" fill="#000" fill-opacity=".7"/><use xlink:href="#f9224220__d" fill="url(#85b12fc9__e)" style="mix-blend-mode:screen"/></g><g transform="translate(10.795 2.929)"><use xlink:href="#8c6d6efb__f" fill="#000" fill-opacity=".7"/><use xlink:href="#8c6d6efb__f" fill="url(#85b12fc9__e)" style="mix-blend-mode:screen"/></g><path fill="#252C2F" d="M35.182 0c21.651 0 23.463 10.127 23.463 20.5 0 12.069-10.25 20.5-24.93 20.5h-2.75C17.079 41 8.788 33.336 8.788 20.5 8.787 10.127 10.599 0 32.25 0zm0 5.854H32.25c-17.6 0-17.6 6.464-17.6 14.646 0 6.68 2.83 14.643 16.316 14.643h2.75c11.226 0 19.066-6.021 19.066-14.643l-.001-.732c-.015-7.832-.527-13.914-17.6-13.914M96.75 0c21.651 0 23.463 10.127 23.463 20.5 0 12.069-10.25 20.5-24.929 20.5h-2.75c-13.888 0-22.18-7.664-22.18-20.5 0-10.373 1.813-20.5 23.464-20.5zm0 5.854h-2.932c-17.6 0-17.6 6.464-17.6 14.646 0 6.68 2.833 14.643 16.316 14.643h2.75c11.226 0 19.066-6.021 19.066-14.643v-.732c-.016-7.832-.528-13.914-17.6-13.914"/><path fill="#252C2F" d="M2.932 5.857C3.618 5.172 11.123 0 32.25 0c17.714 0 21.464 1.88 27.14 4.72l.415.21c.395.143 2.413.844 4.773.921a16.5 16.5 0 0 0 4.528-.881C75.584 1.748 81.926 0 96.75 0c21.127 0 28.632 5.172 29.318 5.857A2.93 2.93 0 0 1 129 8.786v2.928c0 1.62-1.31 2.929-2.932 2.929 0 0-5.863 0-5.863 2.928s-2.932-4.237-2.932-5.857V8.862c-3.576-1.4-9.976-3.005-20.523-3.005-11.75 0-17.602 1.131-22.622 3.247l.056.139-2.496 1.007 2.493 1.008-2.2 5.43-2.717-1.1a13 13 0 0 0-1.493-.457c-2.024-.51-4.106-.666-5.946-.28a7.7 7.7 0 0 0-1.877.642l-2.622 1.31-2.623-5.238 2.622-1.31.006-.003-2.512-1.015.08-.198C50.57 6.976 46.58 5.857 32.25 5.857c-10.546 0-16.947 1.604-20.523 3.004v2.853c0 1.62-2.932 8.786-2.932 5.857s-5.863-2.928-5.863-2.928A2.93 2.93 0 0 1 0 11.714V8.786a2.93 2.93 0 0 1 2.932-2.929"/></g></g></g></svg>