<svg xmlns="http://www.w3.org/2000/svg" xmlns:xlink="http://www.w3.org/1999/xlink" width="266" height="280"><defs><filter id="60cdde34__c" width="101.7%" height="111.1%" x="-.8%" y="-2.8%" filterUnits="objectBoundingBox"><feOffset dy="2" in="SourceAlpha" result="shadowOffsetOuter1"/><feColorMatrix in="shadowOffsetOuter1" values="0 0 0 0 0 0 0 0 0 0 0 0 0 0 0 0 0 0 0.1 0"/></filter><rect id="fcebd6b9__d" width="118" height="36" x="74" y="50" rx="8"/><path id="5e71ce53__a" d="M96 0c24.3 0 44 19.7 44 44v111c0 5.523-4.477 10-10 10s-10-4.477-10-10V54H20v101c0 5.523-4.477 10-10 10s-10-4.477-10-10V44C0 19.7 19.7 0 44 0z"/></defs><g fill="none" fill-rule="evenodd"><g transform="translate(63 20)"><path fill="#F4F4F4" d="M23.671 48v105.664c0 6.26-5.075 11.336-11.335 11.336S1 159.925 1 153.664V48zM139 48v105.664c0 6.26-5.075 11.336-11.336 11.336-6.26 0-11.335-5.075-11.335-11.336V48z"/><mask id="7684d408__b" fill="#fff"><use xlink:href="#5e71ce53__a"/></mask><use xlink:href="#5e71ce53__a" fill="#D8D8D8"/><g fill="#FF5C5C" mask="url(#7684d408__b)"><path d="M-4-1h149v172H-4z"/></g></g><use xlink:href="#fcebd6b9__d" fill="#000" filter="url(#60cdde34__c)"/><use xlink:href="#fcebd6b9__d" fill="#F4F4F4"/></g></svg>