<svg xmlns="http://www.w3.org/2000/svg" xmlns:xlink="http://www.w3.org/1999/xlink" width="264" height="280"><defs><path id="a9f30673__a" d="M34.008 15.136C35.128 29.124 38.235 40.993 53.996 41c15.762.007 18.92-11.943 19.998-25.994.087-1.13-.82-2.006-1.957-2.006-6.686 0-9.367 1.994-18.048 2s-13.232-2-17.897-2c-1.143 0-2.196.737-2.084 2.136"/><path id="2c1cd9e0__c" d="M14 14.048c9.61 0 14 4.451 14-2.486C28 4.624 21.732 0 14 0S0 4.624 0 11.562s4.39 2.486 14 2.486"/><path id="b1b129b3__e" d="M14 14.048c9.61 0 14 4.451 14-2.486C28 4.624 21.732 0 14 0S0 4.624 0 11.562s4.39 2.486 14 2.486"/></defs><g fill="none" fill-rule="evenodd"><g transform="translate(78 134)"><mask id="2c282b94__b" fill="#fff"><use xlink:href="#a9f30673__a"/></mask><use xlink:href="#a9f30673__a" fill="#000" fill-opacity=".7" transform="matrix(1 0 0 -1 0 54)"/><path fill="#FFF" d="M44 2h21a5 5 0 0 1 5 5v6a5 5 0 0 1-5 5H44a5 5 0 0 1-5-5V7a5 5 0 0 1 5-5" mask="url(#2c282b94__b)"/><g fill="#FF4F6D" mask="url(#2c282b94__b)"><g transform="translate(38 32)"><circle cx="11" cy="11" r="11"/><circle cx="21" cy="11" r="11"/></g></g></g><path fill="#000" fill-opacity=".16" d="M120 130c0 4.418 5.373 8 12 8s12-3.582 12-8"/><g transform="translate(92 103)"><mask id="be08da39__d" fill="#fff"><use xlink:href="#2c1cd9e0__c"/></mask><use xlink:href="#2c1cd9e0__c" fill="#FFF"/><circle cx="14" cy="10" r="6" fill="#000" fill-opacity=".7" mask="url(#be08da39__d)"/></g><g transform="translate(144 103)"><mask id="f8bb9a86__f" fill="#fff"><use xlink:href="#b1b129b3__e"/></mask><use xlink:href="#b1b129b3__e" fill="#FFF"/><circle cx="14" cy="10" r="6" fill="#000" fill-opacity=".7" mask="url(#f8bb9a86__f)"/></g><g fill="#000" fill-opacity=".6" fill-rule="nonzero"><path d="M91.611 97.185c4.24-5.769 6.878-5.484 13.313-.629l.67.508C110.422 100.726 112.708 102 116 102a2 2 0 1 0 0-4c-2.066 0-3.901-1.022-7.989-4.123-.375-.285-.492-.373-.678-.513-3.76-2.837-5.959-4.077-8.695-4.372-3.684-.398-7.058 1.482-10.25 5.823a2 2 0 0 0 3.223 2.37M172.388 97.185c-4.24-5.769-6.877-5.484-13.312-.629l-.67.508C153.578 100.726 151.292 102 148 102a2 2 0 1 1 0-4c2.066 0 3.901-1.022 7.989-4.123.375-.285.492-.373.678-.513 3.76-2.837 5.959-4.077 8.695-4.372 3.684-.398 7.058 1.482 10.25 5.823a2 2 0 0 1-3.224 2.37"/></g></g></svg>