<svg xmlns="http://www.w3.org/2000/svg" xmlns:xlink="http://www.w3.org/1999/xlink" width="264" height="280"><defs><path id="2d391b9e__a" d="M35.118 15.128C36.176 24.62 44.226 32 54 32c9.804 0 17.874-7.426 18.892-16.96.082-.767-.775-2.04-1.85-2.04H37.088c-1.08 0-2.075 1.178-1.97 2.128"/></defs><g fill="none" fill-rule="evenodd"><g transform="translate(78 134)"><mask id="9ea0d4c4__b" fill="#fff"><use xlink:href="#2d391b9e__a"/></mask><use xlink:href="#2d391b9e__a" fill="#000" fill-opacity=".7"/><path fill="#FFF" d="M44 2h21a5 5 0 0 1 5 5v6a5 5 0 0 1-5 5H44a5 5 0 0 1-5-5V7a5 5 0 0 1 5-5" mask="url(#9ea0d4c4__b)"/><g fill="#FF4F6D" mask="url(#9ea0d4c4__b)"><g transform="translate(38 24)"><circle cx="11" cy="11" r="11"/><circle cx="21" cy="11" r="11"/></g></g></g><path fill="#000" fill-opacity=".16" d="M120 130c0 4.418 5.373 8 12 8s12-3.582 12-8"/><g fill="#000" fill-opacity=".6"><path d="M92.16 112.447c1.847-3.798 6.004-6.447 10.838-6.447 4.816 0 8.961 2.63 10.817 6.407.552 1.122-.233 2.04-1.024 1.36-2.451-2.107-5.932-3.423-9.793-3.423-3.74 0-7.124 1.235-9.56 3.228-.891.728-1.818-.014-1.278-1.125M150.16 112.447c1.847-3.798 6.004-6.447 10.838-6.447 4.816 0 8.961 2.63 10.817 6.407.552 1.122-.233 2.04-1.024 1.36-2.451-2.107-5.932-3.423-9.793-3.423-3.74 0-7.124 1.235-9.56 3.228-.891.728-1.818-.014-1.278-1.125"/></g><g fill="#000" fill-opacity=".6" fill-rule="nonzero"><path d="M91.63 99.159c3.915-5.51 14.648-8.598 23.893-6.328a2 2 0 0 0 .954-3.884c-10.737-2.637-23.165.94-28.107 7.894a2 2 0 0 0 3.26 2.318M172.37 99.159c-3.915-5.51-14.648-8.598-23.893-6.328a2 2 0 0 1-.954-3.884c10.737-2.637 23.165.94 28.108 7.894a2 2 0 0 1-3.26 2.318"/></g></g></svg>