<?xml version="1.0" encoding="UTF-8"?>
<svg width="264px" height="280px" viewBox="0 0 264 280" version="1.1" xmlns="http://www.w3.org/2000/svg" xmlns:xlink="http://www.w3.org/1999/xlink">
    <!-- Generator: Sketch 58 (84663) - https://sketch.com -->
    <title>EDIT ME</title>
    <desc>Created with Sketch.</desc>
    <g id="EDIT-ME" stroke="none" stroke-width="1" fill="none" fill-rule="evenodd">
        <g id="Face" transform="translate(76.000000, 82.000000)">
            <g id="Mouth/Sad" transform="translate(2.000000, 52.000000)" fill="#000000" fill-opacity="0.699999988">
                <path d="M40.0582943,16.6539438 C40.7076459,23.6831146 46.7016363,28.3768187 54,28.3768187 C61.3416045,28.3768187 67.3633339,23.627332 67.9526838,16.5287605 C67.9840218,16.1513016 67.0772329,15.8529531 66.6289111,16.077395 C61.0902255,18.8502083 56.8805885,20.2366149 54,20.2366149 C51.1558456,20.2366149 47.0072148,18.8804569 41.5541074,16.168141 C41.0473376,15.9160792 40.0197139,16.2363147 40.0582943,16.6539438 Z" id="Mouth" transform="translate(54.005357, 22.188409) scale(1, -1) translate(-54.005357, -22.188409) "></path>
            </g>
            <g id="Nose/Default" transform="translate(28.000000, 40.000000)" fill="#000000" fill-opacity="0.16">
                <path d="M16,8 C16,12.418278 21.372583,16 28,16 L28,16 C34.627417,16 40,12.418278 40,8" id="Nose"></path>
            </g>
            <g id="Eyes/Cry-😢" transform="translate(0.000000, 8.000000)">
                <circle id="Eye" fill-opacity="0.599999964" fill="#000000" fill-rule="evenodd" cx="30" cy="22" r="6"></circle>
                <path d="M25,27 C25,27 19,34.2706667 19,38.2706667 C19,41.5846667 21.686,44.2706667 25,44.2706667 C28.314,44.2706667 31,41.5846667 31,38.2706667 C31,34.2706667 25,27 25,27 Z" id="Drop" fill="#92D9FF" fill-rule="nonzero"></path>
                <circle id="Eye" fill-opacity="0.599999964" fill="#000000" fill-rule="evenodd" cx="82" cy="22" r="6"></circle>
            </g>
            <g id="Eyebrow/Outline/Sad-Concerned" fill="#000000" fill-opacity="0.599999964" fill-rule="nonzero">
                <path d="M15.9726042,19.4088529 C17.452356,11.0203704 30.0622688,5.22829657 39.2106453,8.9774793 C40.2254706,9.39337449 41.4016967,8.94600219 41.8378196,7.97824531 C42.2739426,7.01048842 41.8048116,5.88881678 40.7899862,5.47292159 C29.3457328,0.782843812 13.9550264,7.85221132 12.0280273,18.7760684 C11.84479,19.8148122 12.5792704,20.798534 13.6685352,20.9732726 C14.7578,21.1480113 15.7893668,20.4475967 15.9726042,19.4088529 Z" id="Eyebrow" transform="translate(27.000414, 12.500000) scale(-1, -1) translate(-27.000414, -12.500000) "></path>
                <path d="M73.9726042,19.4088529 C75.452356,11.0203704 88.0622688,5.22829657 97.2106453,8.9774793 C98.2254706,9.39337449 99.4016967,8.94600219 99.8378196,7.97824531 C100.273943,7.01048842 99.8048116,5.88881678 98.7899862,5.47292159 C87.3457328,0.782843812 71.9550264,7.85221132 70.0280273,18.7760684 C69.84479,19.8148122 70.5792704,20.798534 71.6685352,20.9732726 C72.7578,21.1480113 73.7893668,20.4475967 73.9726042,19.4088529 Z" id="Eyebrow" transform="translate(85.000414, 12.500000) scale(1, -1) translate(-85.000414, -12.500000) "></path>
            </g>
        </g>
    </g>
</svg>