<svg xmlns="http://www.w3.org/2000/svg" width="264" height="280"><g fill="none" fill-rule="evenodd"><path fill="#000" fill-opacity=".7" d="M118.058 161.723c.65-7.03 6.644-11.723 13.942-11.723 7.342 0 13.363 4.75 13.953 11.848.031.378-.876.676-1.324.451Q136.32 158.14 132 158.14q-4.266 0-12.446 4.069c-.507.252-1.534-.068-1.496-.486"/><path fill="#000" fill-opacity=".16" d="M120 130c0 4.418 5.373 8 12 8s12-3.582 12-8"/><g transform="translate(76 90)"><circle cx="30" cy="22" r="6" fill="#000" fill-opacity=".6"/><path fill="#92D9FF" fill-rule="nonzero" d="M25 27s-6 7.27-6 11.27a6 6 0 1 0 12 0c0-4-6-11.27-6-11.27"/><circle cx="82" cy="22" r="6" fill="#000" fill-opacity=".6"/></g><g fill="#000" fill-opacity=".6" fill-rule="nonzero"><path d="M114.028 87.591c-1.48 8.389-14.09 14.18-23.238 10.432-1.015-.416-2.19.031-2.627.999s.033 2.09 1.048 2.505c11.444 4.69 26.835-2.38 28.762-13.303.183-1.039-.551-2.023-1.64-2.197-1.09-.175-2.122.525-2.305 1.564M149.973 87.591c1.48 8.389 14.09 14.18 23.238 10.432 1.014-.416 2.19.031 2.627.999s-.033 2.09-1.048 2.505c-11.444 4.69-26.835-2.38-28.762-13.303-.183-1.039.551-2.023 1.64-2.197 1.09-.175 2.121.525 2.305 1.564"/></g></g></svg>