<svg xmlns="http://www.w3.org/2000/svg" xmlns:xlink="http://www.w3.org/1999/xlink" width="264" height="280"><defs><path id="e7b7be26__a" d="M29 15.609C30.41 25.23 41.062 33 54 33c12.968 0 23.646-7.817 25-18.26.101-.4-.225-1.74-2.174-1.74H31.174c-1.79 0-2.304 1.24-2.174 2.609"/></defs><g fill="none" fill-rule="evenodd"><g transform="translate(78 134)"><mask id="144fe3cb__b" fill="#fff"><use xlink:href="#e7b7be26__a"/></mask><use xlink:href="#e7b7be26__a" fill="#000" fill-opacity=".7"/><path fill="#FFF" d="M44 2h21a5 5 0 0 1 5 5v6a5 5 0 0 1-5 5H44a5 5 0 0 1-5-5V7a5 5 0 0 1 5-5" mask="url(#144fe3cb__b)"/><path fill="#FF4F6D" d="M59.5 20c3.59 0 6.5 1.567 6.5 3.5q0 .124-.016.247Q66 23.87 66 24v9c0 6.075-4.925 11-11 11h-1c-6.075 0-11-4.925-11-11v-9q0-.128.016-.254A2 2 0 0 1 43 23.5c0-1.933 2.91-3.5 6.5-3.5 2.011 0 3.809.492 5.001 1.264C55.691 20.492 57.489 20 59.5 20"/></g><path fill="#000" fill-opacity=".16" d="M120 130c0 4.418 5.373 8 12 8s12-3.582 12-8"/><g transform="translate(76 90)"><circle cx="82" cy="22" r="12" fill="#FFF"/><circle cx="82" cy="22" r="6" fill="#000" fill-opacity=".7"/><path fill="#000" fill-opacity=".6" d="M16.16 25.447C18.007 21.65 22.164 19 26.998 19c4.816 0 8.961 2.63 10.817 6.407.552 1.122-.233 2.04-1.024 1.36-2.451-2.107-5.932-3.423-9.793-3.423-3.74 0-7.124 1.235-9.56 3.228-.891.728-1.818-.014-1.278-1.125"/></g><g fill="#000" fill-opacity=".6" fill-rule="nonzero"><path d="M91.63 99.159c3.915-5.51 14.648-8.598 23.893-6.328a2 2 0 0 0 .954-3.884c-10.737-2.637-23.165.94-28.107 7.894a2 2 0 0 0 3.26 2.318M172.37 99.159c-3.915-5.51-14.648-8.598-23.893-6.328a2 2 0 0 1-.954-3.884c10.737-2.637 23.165.94 28.108 7.894a2 2 0 0 1-3.26 2.318"/></g></g></svg>