<svg xmlns="http://www.w3.org/2000/svg" xmlns:xlink="http://www.w3.org/1999/xlink" width="264" height="280"><defs><path id="b9dd142b__a" d="M67 1.348c0 11.863 14.998 21.48 33.5 21.48S134 13.21 134 1.348q0-.53-.04-1.053c36.976 3.03 66.04 34 66.04 71.757V81H0v-8.948C0 33.952 29.593 2.764 67.047.219Q67 .782 67 1.348"/></defs><g fill="none" fill-rule="evenodd"><g transform="translate(32 199)"><mask id="528d7e24__b" fill="#fff"><use xlink:href="#b9dd142b__a"/></mask><use xlink:href="#b9dd142b__a" fill="#E6E6E6"/><g fill="#FFF" mask="url(#528d7e24__b)"><path d="M-32-29h264V81H-32z"/></g><g fill="#000" fill-opacity=".16" mask="url(#528d7e24__b)" opacity=".6"><ellipse cx="40.5" cy="27.848" rx="39.635" ry="26.914" transform="translate(60 -25)"/></g></g><path fill="#3A4C5A" d="M96 238.5c0 15.21 1.96 29.42 5.362 41.501L32 280v-8.948c0-38.687 30.512-70.248 68.785-71.93C97.74 210.731 96 224.172 96 238.5m136 32.552V280l-68.362.001C167.039 267.921 169 253.71 169 238.5c0-14.306-1.735-27.73-4.771-39.326C202.025 201.363 232 232.707 232 271.052"/><path fill="#E6E6E6" d="m181 256 9.556-7.167a4 4 0 0 1 4.856.043L202 254z"/><path fill="#2F4351" d="M101 198q-6 29 5 82H90l-14-36 6-9-6-6 19-30q3.042-.946 6-1M163 198q6 29-5 82h16l14-36-6-9 6-6-19-30q-3.042-.946-6-1"/></g></svg>