<svg xmlns="http://www.w3.org/2000/svg" xmlns:xlink="http://www.w3.org/1999/xlink" width="264" height="280"><defs><path id="7e69b983__a" d="m187.997 34.742-.002-.097C213.853 45.567 232 71.165 232 100.999V110H32v-9c0-29.836 18.147-55.433 44.006-66.356.276-14.092 14.076-19.568 31.994-21.573V32c0 13.255 10.745 24 24 24s24-10.745 24-24l.001-18.929c17.96 2.01 31.782 7.506 31.996 21.67"/></defs><g fill="none" fill-rule="evenodd" transform="translate(0 170)"><mask id="bc367eb2__b" fill="#fff"><use xlink:href="#7e69b983__a"/></mask><use xlink:href="#7e69b983__a" fill="#B7C1DB"/><g fill="#65C9FF" mask="url(#bc367eb2__b)"><path d="M0 0h264v110H0z"/></g><path fill="#F4F4F4" d="M102 61.739V110h-7V58.15a65 65 0 0 0 7 3.589M169 58.149 169 98.5a3.5 3.5 0 1 1-7 0l.001-36.762a65 65 0 0 0 7-3.589" mask="url(#bc367eb2__b)"/><path fill="#000" fill-opacity=".16" d="m132 68-1.004-.005C97.88 67.68 65.5 51.823 65.5 32.308c0-11.065 10.409-16.737 25.459-19.583C81.875 16.075 76 21.706 76 31.077 76 51.469 103.821 68 132 68m0 0c28.179 0 56-16.531 56-36.923 0-9.37-5.875-15.002-14.96-18.352 15.051 2.846 25.46 8.518 25.46 19.583C198.5 52.02 165.462 68 132 68" mask="url(#bc367eb2__b)"/></g></svg>