<svg xmlns="http://www.w3.org/2000/svg" xmlns:xlink="http://www.w3.org/1999/xlink" width="264" height="280"><defs><filter id="66910d1c__c" width="130.8%" height="153.3%" x="-15.4%" y="-26.7%" filterUnits="objectBoundingBox"><feOffset dy="2" in="SourceAlpha" result="shadowOffsetOuter1"/><feColorMatrix in="shadowOffsetOuter1" result="shadowMatrixOuter1" values="0 0 0 0 0 0 0 0 0 0 0 0 0 0 0 0 0 0 0.2 0"/><feMerge><feMergeNode in="shadowMatrixOuter1"/><feMergeNode in="SourceGraphic"/></feMerge></filter><filter id="78817a37__d" width="153.3%" height="127.6%" x="-26.7%" y="-13.8%" filterUnits="objectBoundingBox"><feOffset dy="2" in="SourceAlpha" result="shadowOffsetOuter1"/><feColorMatrix in="shadowOffsetOuter1" result="shadowMatrixOuter1" values="0 0 0 0 0 0 0 0 0 0 0 0 0 0 0 0 0 0 0.2 0"/><feMerge><feMergeNode in="shadowMatrixOuter1"/><feMergeNode in="SourceGraphic"/></feMerge></filter><filter id="2f38a488__e" width="153.3%" height="127.6%" x="-26.7%" y="-13.8%" filterUnits="objectBoundingBox"><feOffset dy="2" in="SourceAlpha" result="shadowOffsetOuter1"/><feColorMatrix in="shadowOffsetOuter1" result="shadowMatrixOuter1" values="0 0 0 0 0 0 0 0 0 0 0 0 0 0 0 0 0 0 0.2 0"/><feMerge><feMergeNode in="shadowMatrixOuter1"/><feMergeNode in="SourceGraphic"/></feMerge></filter><filter id="a84916eb__f" width="130.8%" height="130.8%" x="-15.4%" y="-15.4%" filterUnits="objectBoundingBox"><feOffset dy="2" in="SourceAlpha" result="shadowOffsetOuter1"/><feColorMatrix in="shadowOffsetOuter1" result="shadowMatrixOuter1" values="0 0 0 0 0 0 0 0 0 0 0 0 0 0 0 0 0 0 0.2 0"/><feMerge><feMergeNode in="shadowMatrixOuter1"/><feMergeNode in="SourceGraphic"/></feMerge></filter><filter id="fd17a965__g" width="120%" height="120%" x="-10%" y="-10%" filterUnits="objectBoundingBox"><feOffset dy="2" in="SourceAlpha" result="shadowOffsetOuter1"/><feColorMatrix in="shadowOffsetOuter1" result="shadowMatrixOuter1" values="0 0 0 0 0 0 0 0 0 0 0 0 0 0 0 0 0 0 0.2 0"/><feMerge><feMergeNode in="shadowMatrixOuter1"/><feMergeNode in="SourceGraphic"/></feMerge></filter><filter id="3e307216__h" width="121.6%" height="121.6%" x="-10.8%" y="-10.8%" filterUnits="objectBoundingBox"><feOffset dy="2" in="SourceAlpha" result="shadowOffsetOuter1"/><feColorMatrix in="shadowOffsetOuter1" result="shadowMatrixOuter1" values="0 0 0 0 0 0 0 0 0 0 0 0 0 0 0 0 0 0 0.2 0"/><feMerge><feMergeNode in="shadowMatrixOuter1"/><feMergeNode in="SourceGraphic"/></feMerge></filter><filter id="88096480__i" width="114.5%" height="114.8%" x="-7.3%" y="-7.4%" filterUnits="objectBoundingBox"><feOffset dy="2" in="SourceAlpha" result="shadowOffsetOuter1"/><feColorMatrix in="shadowOffsetOuter1" result="shadowMatrixOuter1" values="0 0 0 0 0 0 0 0 0 0 0 0 0 0 0 0 0 0 0.2 0"/><feMerge><feMergeNode in="shadowMatrixOuter1"/><feMergeNode in="SourceGraphic"/></feMerge></filter><path id="a1585283__a" d="M0 0h264v280H0z"/></defs><g fill="none" fill-rule="evenodd"><mask id="483fdd93__b" fill="#fff"><use xlink:href="#a1585283__a"/></mask><g mask="url(#483fdd93__b)"><path fill="#1F3540" d="M67.35 128.534a12.01 12.01 0 0 0 8.86 6.333c1.742 20.248 14.26 37.416 31.79 45.744v4.2a16.6 16.6 0 0 1-2.5.189c-6.82 0-12.675-4.139-15.188-10.042C81.754 174.35 75 167.213 75 158.5c0-1.471.193-2.897.554-4.254C68.858 152.145 64 145.89 64 138.5c0-3.5 1.09-6.744 2.947-9.414l.237-.33zm129.3 0A16.42 16.42 0 0 1 200 138.5c0 7.39-4.858 13.645-11.554 15.746A16.5 16.5 0 0 1 189 158.5c0 8.713-6.754 15.85-15.312 16.458C171.175 180.86 165.32 185 158.5 185q-1.275-.001-2.5-.188l.001-4.202c17.53-8.328 30.047-25.496 31.79-45.743a12.01 12.01 0 0 0 8.86-6.333M143.5 12c6.795 0 12.818 3.306 16.548 8.398A20.4 20.4 0 0 1 167.5 19c11.322 0 20.5 9.178 20.5 20.5q-.001 1.56-.227 3.059C194.815 44.442 200 50.865 200 58.5c0 2.543-.575 4.952-1.603 7.103C202.97 68.535 206 73.663 206 79.5c0 4.71-1.973 8.958-5.138 11.965A16.5 16.5 0 0 1 202 97.5c0 4.175-1.55 7.988-4.107 10.894A12.01 12.01 0 0 0 188 98.166v-.23l-.084.064c-2.903-47.155-48.485-30.252-55.92-56.677-7.43 26.424-53.01 9.522-55.914 56.677L76 97.936v.23a12.01 12.01 0 0 0-9.893 10.227A16.44 16.44 0 0 1 62 97.5c0-1.645.24-3.233.689-4.733C58.63 89.762 56 84.938 56 79.5c0-6.493 3.75-12.11 9.204-14.803A16.4 16.4 0 0 1 64 58.5c0-7.635 5.185-14.058 12.227-15.941Q76 41.06 76 39.5C76 28.178 85.178 19 96.5 19c2.63 0 5.143.495 7.453 1.397C107.682 15.307 113.705 12 120.5 12c4.263 0 8.221 1.3 11.5 3.527A20.4 20.4 0 0 1 143.5 12"/><g fill-rule="nonzero" filter="url(#66910d1c__c)" opacity=".9" transform="scale(1 -1)rotate(-20 -104.666 -519.066)"><path fill="#5DD362" d="M3.611 10S1.95 0 13 0c7.222 0 12.278 5.714 12.278 5.714s-5.417 8.572-13.722 8.572C5.056 14.286 3.61 10 3.61 10"/><path fill="#42BC53" d="M25.278 5.714s-5.417 8.572-13.722 8.572c-4.334 0-6.428-1.929-7.367-3.215-2.095 1.786-2.817 3.429-2.817 3.5-.072.286-.36.429-.65.429-.072 0-.216 0-.289-.071-.36-.143-.505-.572-.36-.929.071-.214 1.877-4.143 7.366-6.714 7.944-4.143 17.839-1.572 17.839-1.572"/></g><g filter="url(#78817a37__d)" transform="rotate(60 77.13 149.592)"><path fill="#5DD362" d="M15 12C15 5.9 9 0 9 0S1.7 4.3 1 13s5.8 10.7 5.8 10.7S15 20.8 15 12"/><path fill="#42BC53" d="M8 29c.1 0 .2 0 .3-.1.5-.2.8-.8.6-1.3-.5-1.5-.9-2.9-1.1-4.4C10 22.2 15 18.9 15 12 15 5.9 9 0 9 0s-.4 1.1-1 3c-.2.5-5.2 13.6-.9 25.3.1.4.5.7.9.7"/></g><g filter="url(#2f38a488__e)" transform="rotate(-120 64.465 11.775)"><path fill="#5DD362" d="M15 12C15 5.9 9 0 9 0S1.7 4.3 1 13s5.8 10.7 5.8 10.7S15 20.8 15 12"/><path fill="#42BC53" d="M8 29c.1 0 .2 0 .3-.1.5-.2.8-.8.6-1.3-.5-1.5-.9-2.9-1.1-4.4C10 22.2 15 18.9 15 12 15 5.9 9 0 9 0s-.4 1.1-1 3c-.2.5-5.2 13.6-.9 25.3.1.4.5.7.9.7"/></g><g filter="url(#a84916eb__f)" transform="matrix(-1 0 0 1 92 29)"><path fill="#4ACAD3" fill-rule="nonzero" d="M24.424 20.956a5.17 5.17 0 0 0 .997-3.853 5.17 5.17 0 0 0-2.02-3.43c-.299-.225-.693-.41-1.141-.567.453-.141.854-.313 1.16-.527a5.206 5.206 0 0 0 1.277-7.243 5.206 5.206 0 0 0-7.242-1.277c-.306.215-.604.533-.893.911.006-.475-.033-.909-.143-1.267a5.16 5.16 0 0 0-2.532-3.07A5.17 5.17 0 0 0 9.926.25a5.207 5.207 0 0 0-3.453 6.493c.11.356.314.735.582 1.124-.448-.151-.869-.243-1.241-.25a5.206 5.206 0 0 0-5.29 5.11 5.18 5.18 0 0 0 .937 3.066 5.2 5.2 0 0 0 4.171 2.223c.373.006.796-.071 1.25-.206-.283.38-.5.75-.621 1.103a5.2 5.2 0 0 0 .662 4.68 5.17 5.17 0 0 0 2.561 1.93 5.206 5.206 0 0 0 6.61-3.225c.12-.352.178-.779.19-1.252.273.386.56.708.857.932a5.17 5.17 0 0 0 3.853.997 5.16 5.16 0 0 0 3.43-2.02"/><path fill="#FFF" d="M11.178 8.64a1.444 1.444 0 1 1 2.763-.845c.233.763-.232 4.182-.232 4.182s-2.298-2.574-2.53-3.337m-2.242 5.797a1.444 1.444 0 1 1 .05-2.888c.798.014 3.905 1.513 3.905 1.513s-3.158 1.389-3.955 1.375m6.057-2.018s1.738-2.98 2.392-3.438a1.444 1.444 0 1 1 1.657 2.366c-.654.458-4.049 1.072-4.049 1.072m-3.073 6.838a1.444 1.444 0 0 1-.895-1.836c.26-.755 2.646-3.246 2.646-3.246s.345 3.432.086 4.187a1.445 1.445 0 0 1-1.837.895m5.32-1.96c-.638-.48-2.27-3.52-2.27-3.52s3.37.732 4.008 1.212a1.444 1.444 0 1 1-1.738 2.307"/></g><g filter="url(#fd17a965__g)" transform="translate(86 16)"><path fill="#FDB599" fill-rule="nonzero" d="m30.526 33.098.258-2.314 2.314-.26c2.847-.319 5.11-2.116 6.054-4.81 1.066-3.042.065-6.359-2.547-8.281l-1.874-1.38.932-2.134c1.229-2.806.645-5.895-1.52-8.061-2.167-2.166-5.256-2.75-8.063-1.522l-2.133.933-1.38-1.875C20.644.786 17.327-.218 14.284.848c-2.692.943-4.49 3.207-4.809 6.054l-.26 2.313-2.313.26c-2.847.319-5.11 2.117-6.054 4.81-.938 2.676-.298 5.56 1.669 7.528a8 8 0 0 0 .877.753l1.875 1.38-.934 2.134c-1.226 2.807-.643 5.896 1.523 8.062s5.255 2.749 8.062 1.523l2.134-.934 1.38 1.875c1.917 2.61 5.24 3.612 8.283 2.547 2.693-.945 4.49-3.208 4.809-6.055"/><path fill="#FFF" d="M22.882 25.19a1.44 1.44 0 0 1-2.782.746C19.894 25.17 20 20 20 20s-2.492 4.529-3.055 5.091a1.44 1.44 0 0 1-2.036-2.036C15.47 22.492 20 20 20 20s-5.168.106-5.936-.1a1.44 1.44 0 0 1 .745-2.782C15.577 17.324 20 20 20 20s-2.676-4.423-2.882-5.19a1.44 1.44 0 0 1 2.782-.746c.206.768.1 5.936.1 5.936s2.492-4.529 3.055-5.091a1.44 1.44 0 0 1 2.036 2.036C24.53 17.508 20 20 20 20s5.169-.106 5.936.1a1.44 1.44 0 0 1-.745 2.782C24.423 22.676 20 20 20 20s2.675 4.422 2.882 5.19"/></g><g filter="url(#3e307216__h)" transform="translate(155 26)"><path fill="#F7D30C" fill-rule="nonzero" d="M34.758 29.822a7.36 7.36 0 0 0 1.418-5.483 7.35 7.35 0 0 0-2.874-4.88c-.426-.321-.987-.584-1.625-.808.645-.201 1.216-.445 1.652-.75 3.342-2.34 4.158-6.964 1.817-10.307-2.34-3.342-6.964-4.157-10.306-1.817-.436.306-.86.758-1.27 1.296.008-.676-.048-1.294-.204-1.803A7.35 7.35 0 0 0 19.763.9a7.36 7.36 0 0 0-5.638-.543C10.223 1.55 8.019 5.695 9.21 9.597c.156.507.447 1.046.83 1.6-.638-.216-1.237-.346-1.768-.355-4.08-.071-7.456 3.19-7.528 7.27a7.37 7.37 0 0 0 1.334 4.363 7.4 7.4 0 0 0 5.936 3.164c.53.01 1.133-.1 1.777-.293-.4.54-.71 1.069-.883 1.57a7.4 7.4 0 0 0 .943 6.66 7.36 7.36 0 0 0 3.645 2.746c3.858 1.329 8.077-.73 9.405-4.588.173-.502.255-1.109.271-1.782.39.549.797 1.007 1.22 1.326a7.35 7.35 0 0 0 5.484 1.418 7.35 7.35 0 0 0 4.88-2.874"/><path fill="#FFF" d="M15.908 12.295a2.055 2.055 0 1 1 3.93-1.202c.332 1.086-.33 5.95-.33 5.95s-3.269-3.662-3.6-4.748m-3.192 8.25a2.055 2.055 0 1 1 .072-4.11c1.135.02 5.558 2.153 5.558 2.153s-4.495 1.977-5.63 1.957m8.62-2.872s2.474-4.241 3.404-4.892a2.055 2.055 0 1 1 2.358 3.367c-.93.651-5.762 1.525-5.762 1.525m-4.373 9.731a2.055 2.055 0 0 1-1.274-2.613c.37-1.073 3.765-4.62 3.765-4.62s.492 4.886.123 5.96a2.056 2.056 0 0 1-2.614 1.273m7.57-2.79c-.907-.683-3.23-5.008-3.23-5.008s4.797 1.042 5.704 1.725a2.055 2.055 0 1 1-2.474 3.283"/></g><g filter="url(#88096480__i)" transform="translate(114)"><path fill="#FF7398" fill-rule="nonzero" d="M54.138 31.546c1.825-6.983-5.994-12.414-8.953-14.184.514-2.934 1.672-12.561-4.468-16.116C34.612-2.288 26.924 3.45 24.6 5.394q-.3-.189-.703-.423C20.83 3.196 13.13-.381 7.85 4.736 2.205 10.204 5.537 18.74 6.805 21.434c-2.16 2.01-8.384 8.592-5.818 15.59.706 1.929 2.011 3.456 3.882 4.538 4.03 2.334 9.607 1.958 11.723 1.707.993 1.88 3.83 6.712 7.888 9.061 1.67.967 3.375 1.413 5.07 1.325 6.905-.358 9.916-9.995 10.67-12.912 2.861-.396 12.086-2.199 13.918-9.197"/><path fill="#FFF" d="M27.764 25.603s3.685 8.188.354 8.71c-3.334.521-1.46-8.591-1.46-8.591s-7.112 6.007-8.15 3.028c-1.04-2.979 7.7-4.048 7.7-4.048s-7.987-4.692-5.393-6.836 6.216 6.092 6.216 6.092 1.945-8.92 4.82-7.254c2.876 1.664-3.857 7.811-3.857 7.811s8.877-.99 8.37 2.352c-.505 3.342-8.6-1.264-8.6-1.264"/></g><g transform="translate(181 129)"><rect width="2" height="39" x="9" fill="#E6E6E6" rx="1"/><path fill="#9177FF" fill-rule="nonzero" d="M20 37h-9.43L17 20H6L0 41h8.636L4 60z"/></g></g></g></svg>