<svg xmlns="http://www.w3.org/2000/svg" xmlns:xlink="http://www.w3.org/1999/xlink" width="264" height="280"><defs><path id="bfd6db9d__a" d="M0 0h264v280H0z"/><path id="f04d9791__c" d="m81.07 152.1.244-.509A56.2 56.2 0 0 0 109 180.611v9a54 54 0 0 1-7.726 1.959c-9.013 1.617-34.325-3.529-45.445-11.982-.849-.645-.418-1.917.67-1.992 11.743-.803 17.712-12.296 22.507-21.405a139 139 0 0 0 2.065-4.09l.243-.51Zm94.058 14.797c.713 2.24 1.746 4.333 3.427 5.789 1.621 1.404 4.513 1.06 6.544 1.117 1.672.048 3.346.053 5.016-.02.839-.036 1.213 1.015.534 1.499q-.195.139-.39.262a39 39 0 0 1-3.25 1.812c-2.524 1.258-5.188 2.244-7.982 2.734-1.916.336-3.815.4-5.654.177a9.8 9.8 0 0 0 1.699 1.94c1.73 1.501 4.816 1.133 6.983 1.194 1.784.052 3.57.057 5.353-.02.895-.039 1.295 1.084.57 1.601a8 8 0 0 1-.416.28 42 42 0 0 1-3.469 1.937c-2.693 1.345-5.536 2.398-8.518 2.922-5.5.966-10.87-.177-15.194-3.708a25 25 0 0 1-3.382-3.361l.001-2.441a56.2 56.2 0 0 0 18.128-13.714M101.442 25.6c19.961-5.2 34.21 3.874 35.42 4.657 1.437.928 1.988.54 3.621.148 6.346-1.52 13.258-2.209 19.705-.927 6.34 1.262 12.418 4.546 17.559 8.378 9.527 7.101 17.762 18.582 18.159 30.824.175 5.507-.617 11.227-1.721 16.616-.995 4.852-4.315 8.675-5.348 13.433-4.027-13.68-19.404-18.245-28.595-27.574 1.997 3.793 5.049 6.948 7.052 10.678-9.247-5.665-18.206-13.88-22.032-24.295-.707 5.398-2.716 10.39-6.108 14.666-3.011 3.796-7.582 7.87-12.295 9.34 2.428-5.507 4.502-11.217 6.407-16.925-2.016 2.617-8.697 13.734-10.375 16.49-1.656 2.72-3.513 5.317-5.507 7.803-.933 1.163-1.929 2.287-2.93 3.391a67 67 0 0 1-1.788 1.895c-.215.219-1.842 2.01-.912.806-2.216 2.802-5.478 4.979-8.31 7.109-2.853 2.144-5.96 3.968-9.192 5.476-7.159 3.343-14.512 4.56-22.32 3.163l.215.036.181.013c1.22.028 3.212-.825 4.366-1.175l.195-.056c1.809-.492 3.474-1.117 5.113-2.024a54 54 0 0 0 9.176-6.418c-2.707 1.152-4.905 3.334-7.664 4.543-2.287 1.003-4.547 1.526-7.032 1.766-5.462.529-11.995-.72-16.721-3.587-5.492-3.333-8.542-9.051-9.99-15.137-1.68-7.067-.635-15.04 3.328-21.074.135 2.143 4.436 3.064 7.916 2.527 9.658-1.49 15.403-38.048 40.427-44.566m-29.51 85.152.215.036-.025-.002a2 2 0 0 1-.19-.034"/><path id="af50f49c__e" d="M64.721 63.464c7.117-1.294 17.075.182 19.386 3.628l-.109-.153.012-.017c2.521-3.324 12.267-4.73 19.264-3.458 9.654 1.757 13.745 12.303 12.506 14.215-1.125 1.736-4.244.095-6.66-.05-5.001-.297-14.172 3.881-23.074-.94a6.04 6.04 0 0 1-2.048-1.85 6 6 0 0 1-2.048 1.85c-8.902 4.821-18.073.643-23.074.94-2.416.145-5.535 1.786-6.66.05-1.24-1.912 2.852-12.458 12.505-14.215"/></defs><g fill="none" fill-rule="evenodd"><mask id="c7079f76__b" fill="#fff"><use xlink:href="#bfd6db9d__a"/></mask><g mask="url(#c7079f76__b)"><g transform="translate(-1)"><mask id="53b41ae0__d" fill="#fff"><use xlink:href="#f04d9791__c"/></mask><use xlink:href="#f04d9791__c" fill="#1D2633"/><g mask="url(#53b41ae0__d)"><path fill="#4A312C" d="M1 0h264v280H1z"/></g><path fill="#000" fill-opacity=".16" d="M81.314 151.591A56.2 56.2 0 0 0 109 180.611v9a54 54 0 0 1-7.726 1.959c-9.013 1.617-34.325-3.529-45.445-11.982-.849-.645-.418-1.917.67-1.992 11.743-.803 17.712-12.296 22.507-21.405a139 139 0 0 0 2.065-4.09Zm97.241 21.095c1.621 1.404 4.513 1.06 6.544 1.117 1.672.048 3.346.053 5.016-.02.839-.036 1.213 1.015.534 1.499q-.195.139-.39.262a39 39 0 0 1-3.25 1.812c-2.524 1.258-5.188 2.244-7.982 2.734-1.916.336-3.815.4-5.653.177a9.8 9.8 0 0 0 1.698 1.94c1.73 1.501 4.816 1.133 6.983 1.194 1.784.052 3.57.057 5.353-.02.895-.039 1.295 1.084.57 1.601a8 8 0 0 1-.416.28 42 42 0 0 1-3.469 1.937c-2.693 1.345-5.536 2.398-8.518 2.922-5.5.966-10.87-.177-15.194-3.708a25 25 0 0 1-3.38-3.36v-2.443a56.2 56.2 0 0 0 18.127-13.713c.713 2.24 1.746 4.333 3.427 5.789"/><g transform="translate(49 72)"><mask id="f974002d__f" fill="#fff"><use xlink:href="#af50f49c__e"/></mask><use xlink:href="#af50f49c__e" fill="#28354B"/><g fill="#4A312C" mask="url(#f974002d__f)"><path d="M0 0h168v152H0z"/></g></g></g></g></g></svg>