<svg xmlns="http://www.w3.org/2000/svg" xmlns:xlink="http://www.w3.org/1999/xlink" width="264" height="280"><defs><path id="63f391cf__a" d="M0 0h264v280H0z"/><path id="aed9aacc__c" d="M108.587.198c56.895-.273 61.706 46.855 65.03 55.027 3.87 9.513 13.51 25.654 15.904 35.662 1.085 4.54 1.693 9.048 1.165 13.696-.121 1.066-1.077 4.228-.476 4.858.858.902 3.697 1.817 4.905 2.517 2.22 1.287 4.474 2.544 6.61 3.93 5.566 3.61 9.14 9.24 11.393 14.846 2.716 6.759 2.28 13.795-1.066 20.467-2.13 4.248-5.453 8.47-9.71 11.37-1.302.887-1.095.534-1.248 1.874-.093.818.007 1.748-.008 2.565a56 56 0 0 1-.215 4.047c-.59 6.493-1.872 13.188-4.113 19.44-1.414 3.948-3.168 7.921-6.533 10.98-2.845 2.586-6.936 4.423-10.852 5.52-1.356.378-1.337.782-1.415 1.175-.106.53.028 3.06.141 3.745.416 2.524 1.37 5.223 2.102 7.689 1.987 6.69 4.905 13.274 6.163 20.122.604 3.289.554 6.73-.218 10.014-.62 2.637-1.748 5.22-3.214 7.605-1.676 2.724-6.589 7.032-10.688 5.177 5.52-2.635 5.76-8.26 3.875-9.833-1.93-1.613-4.577-1.706-7.142-1.697-2.13.007-4.234.17-6.346.436-4.624.58-9.934 2.033-14.557.953-2.63-.615-5.094-1.837-7.467-2.955-.21-.099-1.426-.677-3.112-1.869-17.674-13.967-13.875-37.052 1.044-64.418-1.376-.086-1.922-.133-3.178-.14L135 183h-4.001l.001-18.39c18.73-8.897 31.738-27.886 31.996-49.94L163 114V76q0-2.212-.169-4.381c-3.348-1.882-8.07-3.627-10.574-5.906-2.337-2.127-5.157-1.787-6.276-4.48l-2.547.905c-1.735-.537-10.524-3.537-11.978-4.128l-.548-1.077-1.667.638c-1.78-.07-9.121-.328-9.121-.328-2.632-.032-13.729.217-16.285.426 0 0-1.222-.916-2.939-2.68l-1.33 3.224s-11.92 1.791-14.078 1.957l-1.063-1.955-2.736 2.98c-3.891.896-13.834 2.824-18.29 4.01-4.034 1.073-7.99 2.265-11.932 3.528a57 57 0 0 0-.46 6.34L51 76v38c0 22.339 13.08 41.623 31.999 50.61V183H79c-5.307 0-10.48.574-15.459 1.664l-.931.21-.085.126h-.04l-.222.386c-3.829 5.563-10.965 13.17-16.653 17.95l.198.238c-.419.428-.77.862-.985 1.288-.885 1.753-.226 4.797.191 6.697.294 1.34.8 2.63 1.468 3.86 3.197 5.896 11.146 8.656 19.518 7.329-2.529 2.123-7.549 3.823-10.953 3.943-4.628.165-10.285-1.622-14.262-3.582.604 3.6 2.687 5.614 4.624 8.598-4.773-.246-8.548-5.54-10.147-7.655-1.025-1.355-1.976-2.847-2.536-4.398-2.197 4.508-3.433 16.636-2.343 20.031a63 63 0 0 1-6.042-3.109C7.404 226.69 5.778 209.912 6.08 204.016c.317-6.194 2.462-11.603 5.014-17.413 1.647-3.75 3.547-7.535 4.466-11.475.466-1.999.135-2.396-1.102-4.018-2.05-2.686-4.401-5.19-6.518-7.838-2.415-3.021-4.474-6.168-5.911-9.639-2.54-6.137-2.626-13.182-.644-19.507 3.16-10.082 15.714-20.168 21.218-27.09-5.696-17.86 2.748-37.124 11.113-47.262C41.419 50.438 51.691.473 108.586.198"/></defs><g fill="none" fill-rule="evenodd"><mask id="e04264cd__b" fill="#fff"><use xlink:href="#63f391cf__a"/></mask><g mask="url(#e04264cd__b)"><path fill="#000" fill-opacity=".16" d="M99.9 42.465c-9.798 6.007-18.514 13.862-24.313 22.895-2.762 4.303-5.034 8.84-7.15 13.398a136 136 0 0 0-2.961 6.931c-.587 1.47-1.487 3.056-.64 4.599.517-.302.713-.194.388.347 2.692.734 6.434-1.335 8.767-2.099 4.763-1.56 9.53-3.033 14.408-4.331 4.456-1.186 14.399-3.114 18.29-4.01l2.736-2.98 1.063 1.955c2.158-.166 14.078-1.957 14.078-1.957l1.33-3.223c1.717 1.763 2.939 2.679 2.939 2.679 2.556-.209 13.653-.458 16.285-.426 0 0 7.34.258 9.12.328l1.668-.638.548 1.077c1.454.591 10.243 3.59 11.978 4.128l2.547-.906c1.12 2.694 3.94 2.354 6.276 4.481 3.092 2.814 9.569 4.816 12.66 7.263 1.108.876 2.143 1.792 3.183 2.726 1.156 1.037.985 1.188 1.36 2.378.113.356 1.256 2.199 1.743 2.35 1.733.536-10.154-30.486-13.417-34.453-3.368-4.094-25.211-31.654-54.174-30.752"/><g transform="translate(25 16)"><mask id="6c178d6b__d" fill="#fff"><use xlink:href="#aed9aacc__c"/></mask><use xlink:href="#aed9aacc__c" fill="#361A0A"/><g fill="#A55728" mask="url(#6c178d6b__d)"><path d="M-25-16h264v280H-25z"/></g><path fill="#000" fill-opacity=".24" d="M62.68 184.462c7.075-9.707-.531-36.675-6.552-46.661q25.256-11.495 99.746 4.247-7.192 13.279-5.868 23.71-6.806 8.363-11.246 17.383l-34.871 8.606q-33.054 3.98-41.21-7.285" mask="url(#6c178d6b__d)"/></g><path fill="#FFF" fill-opacity=".6" d="M178.908 217.739c-.662.39-.53 2.373-.547 2.93a74 74 0 0 0 .098 6.742c.253 3.972 2.552 7.434 5.931 10.08 3.583 2.805 8.379 4.082 10.98 7.829 1.267 1.825 1.943 3.95 1.834 6.098-.056 1.106-.334 2.218-.635 3.294-.197.708-.902 1.868-.901 2.559.031-3.887.084-8.412-2.636-11.673-2.731-3.274-7.493-4.427-10.829-7.115-3.278-2.642-5.765-6.094-6.325-9.985-.452-3.144-.23-8.626 3.03-10.76m-2.814 25.027c.559.5 2.519 1.08 3.12 1.417 1.456.817 2.865 1.746 4.02 2.877 2.317 2.266 3.81 5.445 3.918 8.494 0-.72-1.646-2.457-2.109-3.073-.768-1.022-1.635-1.969-2.518-2.917-1.615-1.733-3.277-3.434-4.905-5.158zM49.56 202.494c.001.496.816 1.518 1.04 2.035.52 1.209.946 2.478 1.157 3.76.418 2.529-.13 5.14-1.067 7.561-1.9 4.907-4.874 9.253-8.613 13.3 1.335-1.748 1.867-4.589 2.806-6.538.965-2 2-3.97 2.85-6.011 1.92-4.605 1.75-9.311 1.827-14.107m9.544 22.353.013.5c-.047-.123-.046-.296-.013-.5m-21.42-55.996c1.357 1.716 3.801 3.065 5.317 4.769 1.899 2.134 3.348 4.58 4.902 6.908 2.838 4.25 6.548 8.081 8.974 12.528 2.83 5.187 4.075 10.807 4.326 16.54.119 2.711.112 5.465-.253 8.168-.196 1.448-.51 2.886-.869 4.312-.136.54-.84 1.926-.977 2.77-.29-10.54 1.454-21.082-4.027-30.903-2.596-4.65-6.586-8.616-9.679-13.018-2.782-3.959-5.498-7.841-7.713-12.074m5.487 44.843c-.416.699.198 2.466-.005 3.373-.332 1.489-1.17 2.932-2.249 4.134.401-.548.193-3.183.405-3.872.392-1.273 1.07-2.502 1.849-3.635m162.745-4.352c-.883-.24-2.993.332-3.92.437-1.297.147-2.596.299-3.896.418a52 52 0 0 1-4.801.222c-1.14-.002-3.32-.54-4.376-.221 2.688-.965 5.661-1.894 8.583-2.029 2.771-.127 5.845.29 8.41 1.173m7.966-4.728c-.946-1.205-3.462-2.323-4.876-3.137a22.3 22.3 0 0 0-5.692-2.295c-4.095-1.033-9.143-1.66-13.431-1.417 1.031-.015 2.732-1.07 3.84-1.292 8.309-1.662 16.42 1.69 20.159 8.141M48.814 146.658c.002 1.911 1.757 4.622 2.363 6.469.83 2.527 1.489 5.105 2.737 7.507 2.126 4.089 5.959 7.243 9.165 10.688 3.553 3.816 6.946 7.762 9.453 12.177 1.115 1.962 2.04 3.966 2.625 6.102a42 42 0 0 1 .77 3.413c.07.369.082 1.696.258 2.27-2.215-4.291-3.905-8.835-6.543-12.942-2.604-4.054-5.947-7.781-9.446-11.281-3.695-3.695-7.41-7.182-9.392-11.847-1.725-4.06-2.391-8.218-1.99-12.556m6.64 25.16c.23.592 2.252 1.86 2.775 2.361a22 22 0 0 1 2.806 3.275c.898 1.285 1.556 2.636 2.145 4.05.507 1.217.73 3.482 1.527 4.498-2.578-3.146-5.233-6.117-7.011-9.69-.607-1.222-1.548-3.023-2.243-4.495m145.774 12.09c.742.182 2.32 1.176 3.047 1.165-2.929.07-5.572-.255-8.391-.914.152.041 1.759-.456 1.811-.463 1.215-.172 2.357-.076 3.533.212m7.908-2.089c-.478-1.226-3.025-2.24-4.176-2.85-1.823-.967-3.564-2.137-5.541-2.872-.18-.061-1.734-.501-2.253-.355l-.077.031.223-.098c.47-.208 1.003-.427 1.507-.534l.25-.043c4.284-.569 9.492 3.141 10.067 6.721m.482-12.548c1.238 1.224 2.338 2.63 3.065 4.133.51 1.055.543 2.74 1.143 3.72l.134.195-.422-.548c-1.724-2.169-3.825-3.981-5.9-5.911-1.563-1.455-4.687-5.181-7.441-5.14 3.656-.517 7.105 1.261 9.421 3.551m-131.983.158c.2.238.346.464.405.665q-.201-.334-.405-.665M53.774 104.2c-.282.734.459 2.487.575 3.296.204 1.414.386 2.837.478 4.26.185 2.883.184 5.749.583 8.618a88.6 88.6 0 0 0 4.456 18.002c2.062 5.721 4.42 11.46 7.813 16.69 3.161 4.876 6.924 9.425 9.956 14.362-.797-.948-2.472-2.1-3.114-2.778a50 50 0 0 1-2.984-3.458c-1.923-2.443-3.637-5-5.294-7.583-3.252-5.073-5.69-10.576-7.803-16.08-4.15-10.807-8.313-23.913-4.666-35.33m171.34 47.657c.53.668 2.328 1.3 3.054 1.933 1.204 1.05 2.01 2.357 2.675 3.709 1.53 3.12 1.815 6.717.589 10 .203-.704-.401-2.184-.571-2.898-.373-1.563-.955-3.04-1.563-4.542-1.18-2.916-2.134-5.648-4.184-8.202M54.69 142.969c.11.523.918 1.427 1.173 1.856a85 85 0 0 1 1.788 3.124c1.097 2.04 2.013 4.15 3.122 6.187 2.038 3.74 4.63 7.36 7.082 10.905-1.358-1.731-3.881-3.097-5.442-4.762-1.415-1.51-2.511-3.2-3.506-4.94-2.255-3.94-3.737-7.964-4.217-12.37m157.26-11.33c-1.144.674-2.266 3.213-3 4.268-1.103 1.586-2.282 3.187-3.214 4.85-1.943 3.469-2.506 7.618-3.23 11.371l-.041.31c-.002-1.525-.68-3.2-.76-4.769-.113-2.19.202-4.315 1.082-6.392 1.74-4.101 5.003-7.207 9.164-9.638m-10.53-3.904c-.378.658-.283 2.031-.422 2.747a23 23 0 0 1-.989 3.626c-.474 1.279-1.093 2.523-1.783 3.728-.43.75-1.98 2.327-1.978 3.157-.083-4.898 1.728-9.335 5.172-13.257M98.368 43.006c-.622.935-1.173 3.769-1.514 4.514a34.6 34.6 0 0 1-3.221 5.605c-2.86 4.044-5.93 7.803-9.786 11.208 1.42-1.246 2.177-4.19 3.156-5.78 1.125-1.825 2.418-3.579 3.645-5.356 2.432-3.524 4.726-6.984 7.72-10.19m-11.876 7.703c-.573.503-.831 2.575-1.225 3.275-.795 1.412-1.953 2.63-3.196 3.772.664-.582.772-2.803 1.24-3.633.751-1.327 1.895-2.448 3.18-3.414m35.273-8.813c-.716.92-.903 2.917-1.428 3.994-.774 1.587-1.81 3.076-2.96 4.484a35 35 0 0 1-4.15 4.243c-1.023.89-2.984 1.89-3.764 2.91 3.501-5.711 7.546-10.638 12.302-15.63m5.626 5.778c-.205.22-.602 2.043-.825 2.401-.723 1.16-2 2.107-3.29 2.778.57-.336 1.103-1.993 1.537-2.55a17 17 0 0 1 2.578-2.63m49.465-1.44c.001.64 1.183 1.763 1.291 2.572.165 1.243-.24 2.644-.964 3.742.132-.31-.454-2.383-.473-2.762-.059-1.173.07-2.38.146-3.552m-6.346-4.25c0 .332.917 1.293 1.123 1.654.517.902.924 1.849 1.064 2.855.158 1.142-.035 2.259-.381 3.369-.206.66-1.184 1.934-1.184 2.528-.16-3.498-.933-6.86-.622-10.406m-71.902.765-.24.297a.9.9 0 0 1 .24-.297"/></g></g></svg>